<svg version="1.1" id="g-Sverigekarta-Landskap_Text-Artboard_1-img"
	 xmlns="http://www.w3.org/2000/svg" xmlns:xlink="http://www.w3.org/1999/xlink" x="0px" y="0px" viewBox="0 0 499.9 1090.7"
	 style="enable-background:new 0 0 499.9 1090.7;" xml:space="preserve">
   <path xmlns="http://www.w3.org/2000/svg" 
   id="Blekinge"
    class="st9"
    fill="#c4c53e"
    d="M215,999.5l-0.4,2.6l-3.7-1.4l-2.7,1l-1.8,2l-1.9-1.7l-2.1,1.4l-0.4,2h-2.6l-0.3-1.7h-4.7&#10;&#9;l-2.3,1.7l-2.1,4.4l-1.7,1.5l-3.4-1.5l-4.1-0.7l-1.8-0.9l-3.1-4.1l-3.2-0.5l-2.5,4.4l-2.6,0.6l-1.1,4.1l1,2.8l0.9,2.6l0.3,3.5l2.2,1&#10;&#9;l2.6-0.4l1,2l0.7,9.1l-1.7,0.9l-0.4,2.2l2.7,2.2l2.5,1.3l2.8,0.2l2.6-2.9l-2.7-2.9l-1.6-3.6l-0.1-3.3l2.3,0.5l1.8,0.1l3.3-0.4&#10;&#9;l4.5-0.2l3.1-0.1l1.7-1.9l1.6,1.9l3,0.1l4-0.6l1.8-0.6l1,3.4l3.1-1.7l1.1-2l2,2.2l1.7-1.7l2.9-1.1l1.5,1.1l4.4-0.7l2.2,1.9l-0.7,2.3&#10;&#9;l-2.8,2.7l2,0.7l3.4-2l2.9,2.6l2.7-5.9l1.9-1.3l2.3-4.9l1.8-6.9l-2.8,1.4l-1.9-1.4l-4.2,0.2l-2.5-1.7l-2.8-5.3l-2.3-0.7l-1-1.9&#10;&#9;l-0.7-2.1l-2.1,0.1l-1.1-2.5L215,999.5z"/></svg>