<svg version="1.1" id="g-Sverigekarta-Landskap_Text-Artboard_1-img"
	 xmlns="http://www.w3.org/2000/svg" xmlns:xlink="http://www.w3.org/1999/xlink" x="0px" y="0px" viewBox="0 0 499.9 1090.7"
	 style="enable-background:new 0 0 499.9 1090.7;" xml:space="preserve">
   <path xmlns="http://www.w3.org/2000/svg" fill="#d00056" id="Bohuslän" class="st9" d="M45.8,787.1l-1.6,1l-1.1,0.5l-1.7,0.3l-3.7,6l-0.1,3.5l0.3,1L39,801v0.7l-0.5,0.2l-1-0.4&#10;&#9;l-0.2,0.3l-0.1,1.2l1.4,4.2l0.2,1.8l-0.6,6.9l2.9,5.3l1.8,7l-1.8,2.5l1.8,7.7l0.1,1.2l0.2,1.1l-0.3,1l-0.9,0.5l-0.5-0.1l-0.2-1.2&#10;&#9;l-0.9,0.2l-0.3,1.1v1.4l0.1,1.1l0.2,1l-1.2,1.4l0.2,0.7h1.4l1.5-0.9l0.3-0.9l0.6,0.1l0.4,0.7l1,0.4l1.3-1.2l-0.1,2.5l1.3-0.3&#10;&#9;l-0.4,1.7l-0.4,1.4L47,852l1,0.2l-0.3,1.4l-0.7,0.7l0.1,0.5l1.7-0.2l1-0.9l1.1-1.5l1-0.7v2.1l-0.6,1l-1.1,1.2l-1.1,0.7l-1.3,0.2&#10;&#9;l-0.6,1l-1.2,1.9l0.3,0.4h1.8l2-0.4l1.5-0.6l1.1-1.3l0.7-1.5l1.3-0.2l1.1-0.7l1.1-1.2l1.1-1.8l1.6,0.1l0.4-0.9l-0.7-1l1.6-0.1&#10;&#9;l1.8,0.6H65l-1.7,1.9l-0.3,1l1.3,2.1l0.7,1.7v1.8h1.3l-0.1,1.3l-1.1,1.1l-0.9,0.3l0.2,1.8l-0.2,2l-0.7,1.3l-0.9,1.2l-0.7,1l0.1,1.7&#10;&#9;l0.2,1.8l-0.1,1.7l-0.6,1.9l-2.1,2.2l-0.3,0.9v1.1l0.5,0.9l-1.5,2.7l-0.4,1.5l-0.5,1.1l-0.9,1.1l-0.3,1.1l0.5,0.9l0.9,0.9l0.3,0.6&#10;&#9;l0.2,1.7l0.4,0.3l1.3-0.2h0.9l-0.5,2.5l-1.5,0.4l-1.5,0.6l-0.9,1.2v0.7l0.2,0.5l0.6,1.2l0.7,0.2h0.5l0.5-0.2l0.2-1.1l0.6-0.2&#10;&#9;l0.6,0.3l0.6,1.3h0.1l0.5-1.1l0.7-0.2l0.5-1.9l1.3-0.3l1.1,1.1l1.1-1.1l3-4.8l0.1-0.1v-0.1l-0.2-3.2l3.3-6.4l1.5-1.8l0.5-0.9&#10;&#9;l-0.2-1.1l1.1-3l1.4-0.7l0.3-10.5l0.2-2.6l-0.1-1.4l2.9-3.5l-2.6-1.5l-0.2-1.1l-1.1-0.9l-0.7-3.3l1.7-3.2l-0.6-2.1l-2.7-2.9&#10;&#9;l-4.5-1.9l-1.7,1l-1-2l-0.9-2.7l1.6-1l-2.7-1.6l0.1-6l2.9-2.1l0.9-4.8l-3.5-2.2l0.2-2.3l-1.7-1.4l-0.6-3.4l-2.5-0.5l-0.5-1.2&#10;&#9;l0.7-1.7l0.1-2.1l-2.1-2.7l-6.1,2.6l-2-1.5l-0.2-1.9l0.9-7.5l-3.4-7.7L45.8,787.1L45.8,787.1z M59.7,853.4l-0.9,0.1l-1.4,0.7&#10;&#9;l-0.2,1.2l0.1,1.2l-0.3,0.9h-0.5l-1.1-0.2l-0.9,0.2l-1,1.1l-0.9,1.1l-1.2,0.6l-0.9,0.5l-1.3,0.4l-0.6,0.5l-0.9,0.5l-1.1-0.1&#10;&#9;l-1.1-0.3l-1.2,1.5l-0.9,1.9l0.5-0.2l0.6-1l0.9,0.2l0.2,0.9l0.7,0.9l0.9,1.2l0.6,1.1l-0.3,1l-0.6,1l-0.4,0.4l0.6,0.6l0.9-0.7&#10;&#9;l0.4,0.6l0.6,0.3l0.9-0.2l0.9-1l0.7-1.2l0.3-1.2l0.6-0.9l1.4-0.9l1,0.5l1.2,0.9l0.7,0.6l-0.2,1.1l1,0.2l0.9-1.2l0.9-0.5l0.4-0.1&#10;&#9;l1.2-0.1l1.5-0.1l0.4-1.4l0.2-2l-0.1-1.6l0.3-1.3l0.5-1.4l-0.3-1.1l-0.7-1l-0.7-0.7l-0.7-0.6l-0.3-1.4v-1.4L59.7,853.4z M60.1,868.4&#10;&#9;l-0.1,1.1l-0.2,1.1l0.4-0.1l0.5-0.7l0.1-0.9L60.1,868.4z M59.3,868.7l-0.6,1.3l0.9,0.1L59.3,868.7z M55.7,869.2l-0.4,0.3l-0.9,2&#10;&#9;l-0.5,0.5l-0.9,0.2l-2.3-0.4l-0.6,0.2l-0.5,0.4l-0.5,1.1v0.7l0.3,0.6l0.7,0.2l1.7-0.1l0.1,0.6l-0.1,0.5l-1.2,0.1l-0.4,0.2l-0.2,0.7&#10;&#9;l0.1,1.1l0.2,0.5l0.3,0.2l0.7,0.4v1.5l0.2,0.6H53l0.4-0.7l0.4-0.9l0.5-0.4l1-0.3l0.6-0.4v-0.5l0.4-1l0.3-1.4l0.9,0.1l0.1,1h0.6&#10;&#9;l0.6-0.5l0.4-1.2l0.1-1.9l-0.1-1.4l-0.7-0.9l-1.3,0.9l-0.7-0.4l0.5-0.9l0.2-0.9l-0.9-0.6L55.7,869.2z M54.3,884.1l-1.7,0.3l-1.5,2&#10;&#9;l1.3,1l3.1-1.5l0.6-1.7L54.3,884.1z M51.8,892.7l-1.2,4l0.7,0.3l1.8-2.3L51.8,892.7z M55.1,895.7l-0.7,0.3l-0.9,0.6l-0.1,1.5&#10;&#9;l-0.7-0.1l-0.1,0.7l0.3,0.3l-0.1,0.7l-1.1-0.1l0.1,0.7l2,1.6l0.4-0.3l0.3-0.9v-1.4l0.5-1.5l0.5-1L55.1,895.7z"/></svg>