<svg version="1.1" id="g-Sverigekarta-Landskap_Text-Artboard_1-img"
	 xmlns="http://www.w3.org/2000/svg" xmlns:xlink="http://www.w3.org/1999/xlink" x="0px" y="0px" viewBox="0 0 499.9 1090.7"
	 style="enable-background:new 0 0 499.9 1090.7;" xml:space="preserve">
   <path xmlns="http://www.w3.org/2000/svg" fill="#c99dfe" id="Dalsland" class="st8" d="M77.4,782.6L66.9,779l-2.7,2l-0.5,6.6l0.7,1.5l-3.1,4.6l-1.6,4l-0.1,2.7l-1.3,3.3l2.1,2.7&#10;&#9;l-0.1,2.1l-0.7,1.7l0.5,1.2l2.5,0.5l0.6,3.4l1.7,1.4l-0.2,2.3l3.5,2.2l-0.9,4.8l-2.9,2.1l-0.1,6l2.7,1.6l-1.6,1l0.9,2.7l1,2l1.7-1&#10;&#9;l4.5,1.9l2.7,2.9l0.6,2.1l7.2-0.7l2.8-5.7l3.3-2l2.7-3.2l1.9-3.4l2.5-3l2-1.8l-0.7-1.4l-4.3-0.4l-1.8-2.2l-0.1-4.6l3-4.6l3.5-5.3&#10;&#9;l0.9-6l1.6-2.5l3.7-6.4v-6.6l-2.1-2L100,784l-2.8,4.7l-4.5-1.1l-4.6-3.6l-3.2-1.4L77.4,782.6L77.4,782.6z"/></svg>