<svg version="1.1" id="g-Sverigekarta-Landskap_Text-Artboard_1-img"
	 xmlns="http://www.w3.org/2000/svg" xmlns:xlink="http://www.w3.org/1999/xlink" x="0px" y="0px" viewBox="0 0 499.9 1090.7"
	 style="enable-background:new 0 0 499.9 1090.7;" xml:space="preserve">
   <path xmlns="http://www.w3.org/2000/svg"
   fill="#5b867b" id="Gotland" class="st10" d="M341.8,892.5l2.3-0.9l2-0.6l0.7-3.3l1.9-1.7l2.2-1.3l2.9,6.2l1.8-5.3l1.7-1.8l6,1.2l2.1-1.8&#10;&#9;l0.7-3.2l3.1-2l3.5,1.2l2.3-0.3l0.7,1.7l-1.2,1.4l-3.1,0.1l-2.6,1l-1,1.2l0.9,2l-1.5,3.2l-2.7,1.7l-1.4,1l0.2,3l-2.7,0.1l-0.2,4.9&#10;&#9;l-3.2,0.2l-2.2-1.5l-0.3,4.3l-1.3,5.7l1.5,1l-0.4,4.8l-1.3,2.5l1.9,3.7l2.8,1.9l2.7,0.6l-1.3,3.4l-3.3,1.2l-2.7,0.9l-2.9,4.7&#10;&#9;l0.1,2.5l1.8,1.2l-1.5,2.9l-4.8,1.8l-0.6,1.7l-6,4.7l1.7,0.9l-4.4,3.4l0.2,5.1l2.3,1l-3,4.4l-4.7,3.3l-2.9-0.2l2.3-5.6l0.3-3.3&#10;&#9;l2.8-1.8l1.1-2.3l-0.5-1.8l-2.7,2.2l-1-0.5l0.5-4.7l-1.9-1.4l-1.3-1.2v-6.1l-2.3-0.7l0.5-3.1l2.1-2.6l0.5-5.1l-1.6-2l-1-4.2l-1-3.8&#10;&#9;l0.6-3.1l3.3-4.2l2.3-1.1l2.8-4.1l3-6l1.3-5L341.8,892.5z"/></svg>