<svg version="1.1" id="g-Sverigekarta-Landskap_Text-Artboard_1-img"
	 xmlns="http://www.w3.org/2000/svg" xmlns:xlink="http://www.w3.org/1999/xlink" x="0px" y="0px" viewBox="0 0 499.9 1090.7"
	 style="enable-background:new 0 0 499.9 1090.7;" xml:space="preserve">
   <path xmlns="http://www.w3.org/2000/svg"
   fill="#ebf15a"
id="Halland" class="st11" d="M78.9,909.3l-3.4,2l-2.9,1l-4.4,0.7l-1-1.1l-2.8-0.1v2.7l0.1,2.1l-1.2,3.1l-0.4,1.5l0.2,1.3&#10;&#9;l1.4,3.8l0.6,1.4l1.1,0.5l0.7-0.4l0.5-1.2l1.1-3.8l0.6-1.9l0.9-0.9l0.9,0.5l0.3,1.7l-0.1,3.7L70,929l0.5,0.7l1.5-0.3l0.6,0.7&#10;&#9;l0.3,2.7l0.2,2.1l-2.1,1.1l-0.2,3.1l2.6,3.3l2,3.5l0.3,4.5l1.3,3.2L79,955l1.2,2.8v2.1l-0.7,2.5l2.1,2.7l3.2,1.3l3.3,2.7l2.5,2.2&#10;&#9;l-0.2,3.8l1.4,4.3l1.4,3.3l1.7,3.7l2.5,0.1l2.5-1.5l2.6,1.5l1.2,4.1l0.5,3.5l-0.3,3.8l-0.9,2.3l-1.5,2l-0.3,5.4l2,0.7l1.9,0.5l7,1.2&#10;&#9;l2.1,1.8l1.9-1.9l2.7-2.6l3.4-2l1.8,0.2l1.6-1.4l0.7-1.7l-1-1.5l1.3-3.3l-1.2-4.5l-1.2-1.3l-0.5-2.2l-1.2-4l-1.9-2.5v-6.3l-0.9-6&#10;&#9;l1.9-1.8l-8.5-13l-1.6-5.1l-0.1-2.6l2.1-1.6l-5.1-3.2l-6.9-8.9l-7.5,5.3l-3.1-1.8l-4.4,1l-2.6-7.3l-1.4-1.8l1-5.3l-0.5-2.7l-0.5-0.7&#10;&#9;l-1.2-0.4l-0.3-1l0.4-1.8l-0.3-1.6l-0.6-1.4l0.7-3L78.9,909.3z"/></svg>