<svg version="1.1" id="g-Sverigekarta-Landskap_Text-Artboard_1-img"
	 xmlns="http://www.w3.org/2000/svg" xmlns:xlink="http://www.w3.org/1999/xlink" x="0px" y="0px" viewBox="0 0 499.9 1090.7"
	 style="enable-background:new 0 0 499.9 1090.7;" xml:space="preserve">
   <path xmlns="http://www.w3.org/2000/svg" fill="#94042a" id="Jämtland" class="st2" d="M179.4,315.8l-4.1,5.3L155.7,358l8.4,6.3l5.6,1.9l1.5,1.9l0.1,4.9l0.6,16.3l-7.4,14.6l-8.8-3.1&#10;&#9;l-14.6-3.5l-3.5-0.9l-10.9,3.2l-7.7,5.9l-11.2,16.8l-2.5,2.9l-1.1,4.4l-5.3,5.7l1.8,9.1L91.5,460l7.2,22.1l-4.5,6.9l20.3-4.8&#10;&#9;l15.2,0.9l0.1-0.1l9.9,1.6l3.4,1.2l0.9,7.8l12.6,11.2l0.1-0.1l0.2,0.4l0.2,0.1l1.9,2.9l-0.6,3.7l4,0.9v0.1l0.3,0.1l0.1,0.4h0.1&#10;&#9;l1.1,8.8l5.3,8.2l5.9,7.3l4.2-0.2l3.7,1.7l9.1-9.7l-0.9-4.1h2l-1.2-6l-0.1-4.7l4.5-0.9v-0.2l0.1,0.2l5.9,0.7l2.2,2.5l4.3-3l12.4-1.7&#10;&#9;l13.5-6.6l6,1.4l4.5-1.9l4.3,1.3l1-5.3l2.7-3.7l6.7-8.9l12.7-1.9l-15.1-18.1l-17.1-15.3l0.2-4.9l-2.8-1.5l-2.6,1.1l-0.4-5.6v-0.1&#10;&#9;l0.6-3.7v-0.1l-6.8-8.7v-0.1l2.9-1.1l3.8,2.3l-0.6-11.9l-1.7-2.9l2.1-2.4l-0.3-17.1l-19.8-29.6l5-5.4l-4.1-3.5v-2l-2.1,0.6l-0.9-2.2&#10;&#9;l-2.5-1.6l2.3-1.6l-3.3-5.2l-6.3-3l-0.4-4.7l-2.7-3.8l-2.9-0.2l-2.6-3.3l0.2-3l-2.3-2.8l-1.5-2.2l-1.8-0.6L179.4,315.8L179.4,315.8z&#10;&#9; M164.6,458.8l5.9,1.8l4.8,2l3.6,3.2l2.5-0.7l4,2.5L181,467l-0.5,2.1l2.3,2l1.8,0.9l-2.1,1.1l-2.7,1l0.4,4.7l1,5.6v0.1h-0.1l1.2,8.4&#10;&#9;l-1.7,6.2l-2.2-1.4l-2-6.1l2.3-0.5l0.1-5.6l-1.8-6.2h0.1l-0.7-3.8l-3.4-2.8l-4.3-1.6l-2.8-2.7l3.6-0.1L164.6,458.8L164.6,458.8z"/></svg>