<svg version="1.1" id="g-Sverigekarta-Landskap_Text-Artboard_1-img"
	 xmlns="http://www.w3.org/2000/svg" xmlns:xlink="http://www.w3.org/1999/xlink" x="0px" y="0px" viewBox="0 0 499.9 1090.7"
	 style="enable-background:new 0 0 499.9 1090.7;" xml:space="preserve">
   <path xmlns="http://www.w3.org/2000/svg" fill="#762455" id="Småland" class="st8" d="M250.8,863.3l-2.8,2.8l-4.5-1.2l-2.7,10.5l-4-0.6l-0.6,4.2l3.4,5l-1.9,1.5l2,7l-2,0.2l-4.2,3.8&#10;&#9;l-2.2-1.6l-3.1,1.6l-0.6-2.6l-4.6-1.5l-3.7,0.9l0.4,2.3l-2.3,2.1l-0.9,2.8l-2.6-0.4l-1.2,1.6l-0.5,3.6l-5.6-1.3l-6.1,0.6l-1.7-4.1&#10;&#9;l-1.5-5.3l0.5-1.9l-3-3.6l-0.9-3.1l1.4-3.3l1.5-1.8l-1-2.6l-1.8-6.8l-2-1.1l-1.6,3.2l-5.9,1.2l-0.3-2.5l-6,1l-2.8-1.2l-3,4.8&#10;&#9;l-0.9,3.3l-4.2,2.7l-3,5.2l-0.9,3.7l-0.4,4.6l-2.1,0.2l-1.3,1l-1.2-0.9l0.4-3.2l-0.6-3.3l-1.2-1.1l-1.5,1.5l-1.6-0.7l-1.8,1.3&#10;&#9;l0.1,3.7l-1.5-0.3l-1.9-3.3l-2.8-1.2l-1.2,2.7l-3.6-0.7l-0.1,6.3l-1.5,2.2l-0.2,2.2l1.2,3.1l-0.6,2.1l-2,1l-0.2,1.7l0.3,3.6&#10;&#9;l-0.7,2.1l-1.9,1.4l-5.1,7.7l-1.1,2.8l-2.5,1.3v1.9l-1.9,0.4l-0.7,1.5l-3.3,0.7l-1.1,4.4l-1.9-0.7l-1.3,1.7l-1,3.8l-2.1,2.8&#10;&#9;l-2.1,1.6l0.1,2.6l1.6,5.1l8.5,13l-1.9,1.8l0.9,6v6.3l1.9,2.5l1.2,4l0.5,2.2l1.2,1.3l1.2,4.5l-1.3,3.3l1,1.5l-0.7,1.7l1.7,1.7&#10;&#9;l3.5,0.2l5.7-1.3l3.7-1.6l3.5,0.1l2.7-1.4h3.8l1.7-2.8l0.4-2.1l1.7-0.1l1.4,2l4.5,1.4l0.7-1l7,2l4.7,1.9l3.2,0.5l3.1,4.1l1.8,0.9&#10;&#9;l4.1,0.7l3.4,1.5l1.7-1.5l2.1-4.4l2.3-1.7h4.7l0.3,1.7h2.6l0.4-2l2.1-1.4l1.9,1.7l1.8-2l2.7-1l3.7,1.4l0.4-2.6l3.2,1.2l1.1,2.5&#10;&#9;l2.1-0.1l0.7,2.1l1,1.9l2.3,0.7l2.8,5.3l2.5,1.7l4.2-0.2l1.9,1.4l2.8-1.4l1.4-6.3l1.6-5.3l1.8-1.9l1.1-3.6l1.6-0.6l-0.1-3.7l0.5-2.3&#10;&#9;l1.9-3.8l3.2-0.7l1.8-8l1.8,1.6l1.4-1.6l-1.2-2l-1.6,1l1.3-7.2l1-4.3l-0.2-3.5l1.5-4.3l3.8-5.8l-3.6-1.7l-1.6-5.1l1.5-3.1l-0.7-3.8&#10;&#9;l3.3-2.6l-0.5-4.3l3-0.1l1.6-4.3l1.4-4.7l-1-2.9l-3.8-4.6l3.8-0.4l1.5-1.4v-2.6l-2.8,1.1l-1.5-2l1.2-3.1l2.5-1.5l-0.1-3.8l-3.1-2.1&#10;&#9;l-3.6-5.2l2.8-4.2l3.6,0.7l2.5,2l0.9-4.7l-0.9-6.4l-1.7-3.7l2.6-1.7l-3.3-3.3l-0.7-2.5l-9.6-6.8L250.8,863.3z"/></svg>