<svg version="1.1" id="g-Sverigekarta-Landskap_Text-Artboard_1-img"
	 xmlns="http://www.w3.org/2000/svg" xmlns:xlink="http://www.w3.org/1999/xlink" x="0px" y="0px" viewBox="0 0 499.9 1090.7"
	 style="enable-background:new 0 0 499.9 1090.7;" xml:space="preserve">
   <path xmlns="http://www.w3.org/2000/svg" fill="#f6f5f1" id="Värmland" class="st4" d="M101.1,636.5l-9.8,2.1l3.6,10.3l-0.4,3.5l1.8,8.2l4.3,7.7l-0.3,3.8l3.3,6.5l-0.1,8.7l-4.7,6.7&#10;&#9;l1.1,11.2l-1.6,4.2l-2.7,7.3l-2.8,2l-1.4,3.5l-5.1,2.2l-2.7,2.9l-4.2,0.5l-3.3-1.4l-4.6,4.2l2.5,5l0.1,4.8l-2.5,2.7l-1.3,2.8&#10;&#9;l-4.6,0.9l-2.1,4l1.5,7.9L66,767l1.3,3.4l-0.3,8.5l10.5,3.6h7.5l3.2,1.4l4.6,3.6l4.5,1.1l2.8-4.7l2.9,1.5l2.1,2v6.6l5.2-1.8l0.2,3.2&#10;&#9;l3.6-0.6l1.1,3.2l2.1,0.1l1,7.8l4.3,2.6l1.9-1.7l-1.1-12.2l-2-8.1l-2.3-6.1l2.2-2.2v-5.9l1.3,1.9l1.5,1.7l2.6-0.3l-1.1-2.3l1.3-1.7&#10;&#9;l3.8-0.5l2.2,2.8l2.6,5.7l3.1-3l1.2-3.7l3.6-1.6l2,3.4l2.8-2.5l2.9,2.5l2.5,1.6l3.4-0.1l1.3,7.3l-2.8,5.4l-2.5,4.7l-0.1,4.4l1.4,0.5&#10;&#9;l1.8-3.1l3-2.2l2.1,1.8l-1.4,3.5l6.1,3.4l12.2-23.5l9.6-1.9l-2-3.5l-2.2-4.4l1.1-4.7l-2.8-2.1l-6.9-1.9l-0.1-4.7l-1.4-6.4l0.7-2.8&#10;&#9;l-2.1-4.1l2.2-1.4l-0.7-4.4l0.6-6.1l-2.1-1l-1.3-2.9l4.8-1.7l-0.9-3.7l-18.3-13.4l-4.6-6.5l-5.8-12l-4.8-0.5l-2.8-2.1l-2.1-6.4&#10;&#9;l-4.8-8.9l-1.5-4.9l-2.1-0.1l-1-5.4l-17.4-20l-0.9-4l-2.3,0.7L101.1,636.5z"/></svg>