<svg version="1.1" id="g-Sverigekarta-Landskap_Text-Artboard_1-img"
	 xmlns="http://www.w3.org/2000/svg" xmlns:xlink="http://www.w3.org/1999/xlink" x="0px" y="0px" viewBox="0 0 499.9 1090.7"
	 style="enable-background:new 0 0 499.9 1090.7;" xml:space="preserve">
   <path xmlns="http://www.w3.org/2000/svg" fill="#d1d6ff" id="Hälsingland" class="st2" d="M198.5,539.6l-7,8.5l1.2,10.4l0.2,6.2l-2.2,8.5l9,13l7.4,16.9l16,23.1l1,7.3l3,5.7l6.7,3.8&#10;&#9;l8,0.9l6.5-4l7.3-0.1l5.4,1.3l6.1-0.6l3.8-0.4l9.8-1.3l-1.2-11.4l2.7-2.7l1.3-5l-4.7-5.4l-0.6-4.1l2.7-4.7l-2.6-5.8l2.2-4.2l1.8-4.4&#10;&#9;l1.6-3.8l4,1.6l1.4,2.9l2.3,0.9l1.2-6.7l-3.5-1.5l-1.3-2.1l0.1-4.7l-2.7-2.9l1.4-7l2.8-4.8l1.3-10.8l-5.7-1.5l-3.3,0.5l-3.5-1.6&#10;&#9;l-1.8,1.1l-4.6-1.3l-2.3,0.4l-4.2-2.5l-10.5-2.6l-10.1-0.3l-6.6,0.3l-1.4-1.6l-14.6-3.2l-7.2,0.5l-6.3,5l-4.7-0.6L198.5,539.6&#10;&#9;L198.5,539.6z"/></svg>