<svg version="1.1" id="g-Sverigekarta-Landskap_Text-Artboard_1-img"
	 xmlns="http://www.w3.org/2000/svg" xmlns:xlink="http://www.w3.org/1999/xlink" x="0px" y="0px" viewBox="0 0 499.9 1090.7"
	 style="enable-background:new 0 0 499.9 1090.7;" xml:space="preserve">
   <path xmlns="http://www.w3.org/2000/svg" fill="#ddb0c5" id="Härjedalen" class="st0" d="M114.4,484l-20.6,5.1l1.2,12.3v0.1l-3.5,10.5l7.8,28.5l11.4,3.7l6.6-0.3l5.1,6.9l3.4,4.9&#10;&#9;l4.3,4.8l1.6,7.4l7.4,9l3.4,7.3l-0.4,3.5l2.1,3l1.8-1.3l10.5,1.9l3.4,1.4l8.2,0.4l5.9,1.7l2.1,2.1l3.3-3.4l1.2-12.7l6.3-9.5l3.5,1.9&#10;&#9;l0.5,0.7l-0.4-0.6l2.2-8.5l-0.2-6.2l-1.2-10.4l7-8.5l-1.4-0.9l-2.8-6.6l-2.3-0.6l-9.2,9.7l-3.7-1.7l-4.2,0.2l-5.9-7.3l-5.3-8.2&#10;&#9;l-1.1-8.8l-0.2-0.1l-0.2-0.5l-4-0.9l0.6-3.7l-1.9-2.9l-0.5-0.4l-12.5-11.2l-0.9-7.8l-3.4-1.2l-9.9-1.6L114.4,484L114.4,484z"/></svg>