<svg version="1.1" id="g-Sverigekarta-Landskap_Text-Artboard_1-img"
	 xmlns="http://www.w3.org/2000/svg" xmlns:xlink="http://www.w3.org/1999/xlink" x="0px" y="0px" viewBox="0 0 499.9 1090.7"
	 style="enable-background:new 0 0 499.9 1090.7;" xml:space="preserve">
   <path xmlns="http://www.w3.org/2000/svg" fill="#fde104" id="Medelpad" class="st1" d="M272.3,488.6l-12.7,1.9l-6.7,8.9l-2.7,3.7l-1,5.3l-4.3-1.3l-4.5,1.9l-6-1.4l-13.5,6.6l-12.4,1.7&#10;&#9;l-4.3,3l-2.2-2.5l-5.9-0.7l-4.5,0.9l0.1,4.7l1.2,6h-2l0.9,4.1l2.3,0.6l2.8,6.6l1.4,0.9l5.4,5.3l4.7,0.7l6.3-5.1l7.2-0.5l14.6,3.2&#10;&#9;l1.4,1.6l6.6-0.3l10.1,0.3l10.5,2.6l4.2,2.5l2.3-0.4l4.6,1.3l1.8-1.1l3.5,1.6l3.3-0.5l5.7,1.5l1.6-4l3.2-0.9l1.1-3.5l-5.7-1.6&#10;&#9;l-3-4.8l0.6-3l2.9-0.9l-0.9-6.3l-3.8-1.4l-0.1-2.1l3.2-1.3l2.8,5.7l5.4,1.2l-0.9-3.8l2.7-2.5l-3.4-3.2l-0.3-3.7l-3.2-1.2l-4.6-6&#10;&#9;l-1-2.7l-9.4-10.3L272.3,488.6L272.3,488.6z"/></svg>