<svg version="1.1" id="g-Sverigekarta-Landskap_Text-Artboard_1-img"
	 xmlns="http://www.w3.org/2000/svg" xmlns:xlink="http://www.w3.org/1999/xlink" x="0px" y="0px" viewBox="0 0 499.9 1090.7"
	 style="enable-background:new 0 0 499.9 1090.7;" xml:space="preserve">
   <path xmlns="http://www.w3.org/2000/svg" fill="#f681fd" id="Norrbotten" class="st0" d="M449.2,62.6l-11.1,27.1l-9.6,8.7l-5.9,15.5l-5.3,15.7l-2.6,7.3l12.6,26.5l-1.1,6.5l-3.2,13.8&#10;&#9;l4.5,5.4l0.7,11.7l-4,2.9l-9.4,4.3l-8.3,8.1l-2.6,0.5l-8.4-6.3l-8.5,3.3l-10.7,27.4l-4.7,7.7l-2.8,6.1l4.2,18.7l0.4,2.1l-5.2,5&#10;&#9;l-9.5-1.7l-2,1.2l-1.4,6l8.1,4.9l30,12.2l18.2,1.9l0.9,3l6.7,3.5l2-5.4l-1.8-7.6l2.9-2.2l0.4-2.3l-7.8-4.9l1.4-2.3l4.9-2l5.3,0.3&#10;&#9;l3.6-1.6l2-3.8l-4.5-4.6l5.6-0.3l3.6-0.2l-0.2-3.3l1.8-0.9l4.2,1.2l1.6-0.9l-2-3.4l-1-4l-1-4.6l-0.4-5.7l0.7-5.2l3.2-1.6l2.8,4&#10;&#9;l0.1,2.9l3.7-0.3l3.2,3.8l2.5,0.9l-0.2-2.7l-3.5-3.6l-1.3-6.6l1-1.2l2.8,1.6l2.3,5.7l6.2,2.3l3.5,3l1.4-6.3l1.3-2.3l2.1,0.9l5,1.6&#10;&#9;l1.4-3.7l3.7,1.7l2.2-1l0.4-2.1l2.2,0.1l3,2.2l9.9-2.1l-5-11.9l-1.4-4.7l-3-4.7v-2l-1.1-1.2v-2.7l-2.5-0.1l-4.5-1.4l-4.3-9.7l1.1-7&#10;&#9;l-1.9-2.8v-2.1l2.1-1.5v-2.6l2.5-1l-0.3-2.6l1.9-2.5l-0.6-5.4l0.4-2.8l-0.9-6.3l0.3-2.2l1.9,0.5l0.2-3l-1.4-2.8l-3.4-4l-0.4-3.2&#10;&#9;l-1.9-1l-0.5-2.3l-1.7-0.3l-3.2-3.5l-0.6-4l-3.8-5.2l0.6-2.7l-1.1-1.9l0.5-3.5l3.7-1.5l1.1-4.3l-1.5-0.5l-0.3-3.3l0.7-2.8l-2.1-2.1&#10;&#9;l-1.1,1.4l-4.6-1.9l-1,1.4l-3.1-2.6l1.9-4.1l-1.1-2.1h1.5l0.5-5l-2.8-4.4l-0.3-8.2l-0.9-3l0.7-5.3l3.3-1.8l-0.9-4.5l-2.6-0.3l-1-3&#10;&#9;h-1.8l-0.6-2.1h-2.1l-2.5-6L449.2,62.6z"/></svg>