<svg version="1.1" id="g-Sverigekarta-Landskap_Text-Artboard_1-img"
	 xmlns="http://www.w3.org/2000/svg" xmlns:xlink="http://www.w3.org/1999/xlink" x="0px" y="0px" viewBox="0 0 499.9 1090.7"
	 style="enable-background:new 0 0 499.9 1090.7;" xml:space="preserve">
   <path xmlns="http://www.w3.org/2000/svg" fill="#cf9f00" id="Skåne" class="st7" d="M154.1,997.1l-1.7,0.1l-0.4,2.1l-1.7,2.8h-3.8l-2.7,1.4l-3.5-0.1l-3.7,1.6l-5.7,1.3l-3.5-0.2&#10;&#9;l-1.7-1.7l-1.6,1.4l-1.8-0.2l-3.4,2l-2.7,2.6l-1.9,1.9l-2.1-1.8l-7-1.2l-1.9-0.5l-2-0.7l0.3-5.4l-2.6,1.1l-2.1-1.6l-2.9-1.3&#10;&#9;l-2.1,0.9l-2.2,1.8l0.2,3.1l2.3,0.7l2.1,1.9l1,2.9l2.1,2.2l1.2,2.6l-1,2.3l-1.7,1.2l-1.1-0.3l-1.5-0.5h-1.3l-1.1-1.7l-3.4-2l-4-2.7&#10;&#9;l-2,0.2l1.8,1.5l1.4,2.6l0.5,2.5l0.7,4.9l0.4,1.4l1.5,1.7l1.7,2.8l2.1,2.7l1.7,3.3l0.7,4l2.3,7.3l3.1,0.7l0.9,3l0.2,4.1l-0.5,0.4&#10;&#9;l-0.6,0.9l0.6,1.2l1.3-0.6l0.5,1.2l-0.5,0.9l0.7,0.3h1.1l1.6,1.3l0.7,0.5l0.5,1.6v0.6l-0.6,1.6v0.5v0.9l-0.3,1l-1.8,0.4l-1.4,1&#10;&#9;l-2.3,1.4l-0.9,0.9v1.5l0.2,2l0.9,2.1l0.5,1.4l0.4,1.4l-0.2,1.8l-0.6,1.8l-0.5,1l-1.1-0.2l-1.3-0.5l-0.4-1.7l-0.2-0.5l-2.3,4.8&#10;&#9;l2.7-1l0.9,0.2l0.6,0.7h0.7l0.2-0.6l0.6-0.3l1.4-0.3l1.6,1.2l2.1,1.5h1.1l1.6-0.3l4.2,1.1l2.2,1.3l1.1,0.4l1.5-0.2l0.7,0.9l2-1.3&#10;&#9;l1.8-0.1l1.5-1.2l1.5-0.5l4.9,0.2l2.6-3.1h2.3l1.6-1l5.1,0.4l3-0.6l1.8,0.7l4.6,3.5l1.9-0.2l4,0.6l0.9-1.5l2.3-4.3l3.3-3.5l1.5-3&#10;&#9;l-0.5-3.5l-2.3-2.1l-0.7-4.6l-2.7-1.8l-0.6-5.2l0.5-5.4l3.3-6l1.9-1l1.5-3.5l3.4-2l1.7-3.2l3.5-1.2l0.4-2.2l1.7-0.9l-0.7-9.1l-1-2&#10;&#9;l-2.6,0.4l-2.2-1l-0.3-3.5l-0.9-2.6l-1-2.8l1.1-4.1l2.6-0.6l2.5-4.4l-4.7-1.9l-7-2l-0.7,1l-4.5-1.4L154.1,997.1z"/></svg>