<svg version="1.1" id="g-Sverigekarta-Landskap_Text-Artboard_1-img"
	 xmlns="http://www.w3.org/2000/svg" xmlns:xlink="http://www.w3.org/1999/xlink" x="0px" y="0px" viewBox="0 0 499.9 1090.7"
	 style="enable-background:new 0 0 499.9 1090.7;" xml:space="preserve">
   <path xmlns="http://www.w3.org/2000/svg" fill="#deabd9" id="Västergötland" class="st7" d="M159.8,798.5l-4.8,2.9l0.7,3.8l-0.9,4.4l-1.7,3.7l-2.5,2.5l-2.1-1.5l-6.9-1.4l-0.9,2.6&#10;&#9;l2.3,2.5l0.4,3l1.8-1.3l3-1.1l1.5,0.9l-1.2,1.9l-3.8,3.2l-2.8,0.7h-3.7l-3.5,2.1l-4.1,1.3l-3.7,2.6l-1.2,4.1l-0.9,3.6l-2,1.4&#10;&#9;l-3.2-0.5l-1.6-1.3l2.5-7.4l1.6-5l-1.7-1.5l-2.8-0.6l-4.6,7.2l-2.8,2.8l0.1,1.5l-2.6,4.1l-5,0.7l-3.1,3.6l0.1,1.8l-3,1.2l1-4.7&#10;&#9;l-2.5-0.3l-3.6,5.3l-2.3-0.5l-1.5,1.1l-3.8-0.9l-7.2,0.7l-1.7,3.2l0.7,3.3l1.1,0.9l0.2,1.1l2.6,1.5l-2.9,3.5l0.1,1.4l-0.2,2.6&#10;&#9;l-0.3,10.5l-1.4,0.7l-1.1,3l0.2,1.1l-0.5,0.9l-1.5,1.8l-3.2,6.4l0.1,2.1v1.1h0.1l-3.1,4.9l-1.1,1.1l-1.1-1.1l-1.3,0.3l-0.5,1.9&#10;&#9;l-0.7,0.3l-0.7,0.7l0.2,0.4l2-0.4l0.6,0.4l1.2-0.5h0.9l-3.1,1.8l-0.3,0.6v0.6l1.2,3.5l0.5,0.1l0.7-1.3l0.3,0.7l-0.2,3.5l-0.3,1.1&#10;&#9;v0.7l2.8,0.1l1,1.1l4.4-0.7l2.9-1l3.4-2l2.3,3l-0.7,3l0.6,1.4l0.3,1.6l-0.4,1.8l0.3,1l1.2,0.4l0.5,0.7l0.5,2.7l-1,5.3l1.4,1.8&#10;&#9;l2.6,7.3l4.5-1l2.9,1.8l7.5-5.2l7,8.9l5.1,3.2l2.1-2.8l1-3.8l1.3-1.7l1.9,0.7l1.1-4.4l3.3-0.7l0.7-1.5l1.9-0.4v-1.9l2.5-1.3l1.1-2.8&#10;&#9;l5.1-7.7l1.9-1.4l0.7-2.1l-0.3-3.6l0.2-1.7l2-1l0.6-2.1l-1.2-3.1l0.2-2.2l1.5-2.2l0.1-6.3l3.6,0.7l1.2-2.7l2.8,1.2l1.9,3.3l1.5,0.3&#10;&#9;l-0.1-3.7l1.8-1.3l1.6,0.7l1.5-1.5l0.3-5.8l1.8-3.1l1.6-5.3l1-6.3l0.3-3.2l1.5-3.2l1.3-5.8l3-3.6l2-4.5l2.3-5.2l1.7-1l1.8-4.7&#10;&#9;l0.3-3.1l0.2-3.4l1.9-1.8l3.4-1.6l2.1-2.6l-1.5-3.5l-0.5-4l-1.7-2.3l-6.8-16.4l-7.6,2.3L159.8,798.5L159.8,798.5z"/></svg>