<svg version="1.1" id="g-Sverigekarta-Landskap_Text-Artboard_1-img"
	 xmlns="http://www.w3.org/2000/svg" xmlns:xlink="http://www.w3.org/1999/xlink" x="0px" y="0px" viewBox="0 0 499.9 1090.7"
	 style="enable-background:new 0 0 499.9 1090.7;" xml:space="preserve">
   <path xmlns="http://www.w3.org/2000/svg" fill="#979bd6" id="Östergötland" class="st7" d="M228.2,799.5l-2.1,4.6l-4.5-1.8l-4.2,4.6l1.5,2.7l-1.8,2.8l-3.4-0.1l-0.9,3.6l-1.3-2.2&#10;&#9;l-2,1l-3.7-2.2l-2.5,3l-2.2,0.1l-1.9,2.5l-1.6,3.1l-0.9,3l-3.7,2.1l-0.5,5.2l-2.9,3.4l2.9,2.3l2.5,0.5l1.4,1.3l-2.6,1.6l-1.6,4&#10;&#9;l-2.6,1.2l-1.8-1.9l-1.8,0.7l-0.1,2.6l-4.8,4l-0.6,2.7l-0.9,2.7l0.5,1.7l-1.1,1.7l-1.1,5.3l-2.3,7.8l2.8,1.2l6-1l0.3,2.5l5.9-1.2&#10;&#9;l1.6-3.2l2,1.1l1.8,6.8l1,2.6l-1.5,1.8l-1.4,3.3l0.9,3.1l3,3.6l-0.5,1.9l1.5,5.3l1.7,4.1l6.1-0.6l5.6,1.3l0.5-3.6l1.2-1.6l2.6,0.4&#10;&#9;l0.9-2.8l2.3-2.1l-0.4-2.3l3.7-0.9l4.6,1.5l0.6,2.6l3.1-1.6l2.2,1.6l4.2-3.8l2-0.2l-2-7l1.9-1.5l-3.4-5l0.6-4.2l4,0.6l2.7-10.5&#10;&#9;l4.5,1.2l2.8-2.7l2.9-0.1h0.7h0.1l1.2-0.1l9.7,6.8l3.8,1.7l2-5.2l-2.2-3.4l-3.6-2.6l6.9-1.5l1.5-3.7l-3.2-2.5l-4-0.3l-1.1-2.7&#10;&#9;l-3.8-1.2l-1.4-2l2,0.2l4.5,0.9l4.5-1.7l3-4.9l-3.2-3.2l-4.8-3.7l-5.9-2.7l-6.2-0.4l-0.9,3.6l-2.2-2.8l-3.3,1.4l-1.4-0.6l0.1-2.7&#10;&#9;l1.6-1.5l4.2,0.6h2.9l-1-2.7l-2.2-0.9l-4.8-9.4l-1.1-1.6l-2.5-0.6l-2.9-3.2l-1.8-3.5l-4-1.8l-4-2.7l-0.7-2L228.2,799.5L228.2,799.5z&#10;&#9;"/></svg>