<svg version="1.1" id="g-Sverigekarta-Landskap_Text-Artboard_1-img"
	 xmlns="http://www.w3.org/2000/svg" xmlns:xlink="http://www.w3.org/1999/xlink" x="0px" y="0px" viewBox="0 0 499.9 1090.7"
	 style="enable-background:new 0 0 499.9 1090.7;" xml:space="preserve">
   <path xmlns="http://www.w3.org/2000/svg"
   id="Dalarna"
   class="st6" 
   fill="#c99dfe"
   d="M99.3,540.4l-7.7,42.2l9.7,13l5.6-0.2l9.8,17.4l-1.7,9l-2,4.7l-3.3,2.5l-1.2,7.6l0.9,4l17.4,20&#10;&#9;l1,5.4l2.1,0.1l1.5,4.9l4.8,8.9l2.1,6.4l2.8,2.1l4.8,0.5l5.8,12l4.6,6.5l18.3,13.4l12.2,2l-1.1-7.4l3-1.9l2.1-0.2l6.8,4.7l1.9-0.3&#10;&#9;l2.2,3.5l3.6,2.8l4.3,4.9l3,5.4l3.2-3.6l1.9-4.3l3.2,0.2l2.7,1.1l1.3-5.8l-1.8-2.6l2.1-4.2l-0.1-2.7l1.6-1.1l1-2.6l4.5,1.1l2.9-2.5&#10;&#9;l2.1,0.6l1.3,3.2l2.1,0.3l2.6,1.6l-0.6,3.2l1.5,0.7l7.4-0.7l1.7-3.1l3.6-2.5l0.1-2.5l2-0.9l6-0.4l-3.3-2.9l-0.4-4.4l-1.6-0.9l-0.4-3&#10;&#9;l-2.2-1.8l-4.7-1.3l-4.1-8l-1-2.3l-1.7-0.5l-3.4-6.7l3.7-1.2l3.1-4.8l-0.7-2.7l2.8-2.1l1-3.8l-6.3-7l-3.8-9.7l-8-0.9l-6.7-3.8&#10;&#9;l-3-5.7l-1-7.3l-16-23.1l-7.4-16.8l-5.9-9.2l-3.2-4.1l-3.5-1.9l-6.4,9.5l-1.1,12.8l-3.3,3.4l-2.1-2.1l-5.9-1.7l-8.2-0.4l-3.4-1.4&#10;&#9;l-10.5-1.9l-1.8,1.3l-2.1-3l0.4-3.5l-3.4-7.3l-7.4-9l-1.6-7.4l-4.3-4.8l-3.4-4.9l-5.1-6.9l-6.6,0.3L99.3,540.4z M182.4,643.8&#10;&#9;l3.2,4.7h2.2l6.2,6.3l2.9-1.8l2.1-1.9l3.2,2.2l-2.5,2.8l-3,1.2l-0.6,6.1l-2.2-5.7l-6.7,3.3l-2.3-3.8l-4-5.2l3,0.1l1.8-1l-1.9-2&#10;&#9;l-2.9-0.3l-0.4-3L182.4,643.8z"/></svg>