<svg version="1.1" id="g-Sverigekarta-Landskap_Text-Artboard_1-img"
	 xmlns="http://www.w3.org/2000/svg" xmlns:xlink="http://www.w3.org/1999/xlink" x="0px" y="0px" viewBox="0 0 499.9 1090.7"
	 style="enable-background:new 0 0 499.9 1090.7;" xml:space="preserve">
   <path xmlns="http://www.w3.org/2000/svg" fill="#e0e4cc"
   id="Gästrikland" class="st0" d="M280.7,638.9l-9.8,1.3l-3.8,0.4l-6.1,0.6l-5.4-1.3l-7.3,0.1l-6.5,4l3.8,9.7l6.3,7l-1,3.8&#10;&#9;l-2.8,2.1l0.7,2.7l-3.1,4.8l-3.7,1.2l3.4,6.7l1.7,0.5l1,2.3l4.1,8l4.7,1.3l2.2,1.8l0.4,3l1.6,0.9l0.4,4.4l3.3,2.9l3-0.1l3.3-3.2&#10;&#9;l-0.7-1.7l1.6-1.9l7.7,1.3l3.8-3.3l3.7-12.9l1.6-14.4l-5.3-2.9l4.9-4.7l-4.3-4.2l1.2-4.1l-4.4-7.8l2.2-4l-3-2.3L280.7,638.9z"/></svg>