<svg version="1.1" id="g-Sverigekarta-Landskap_Text-Artboard_1-img"
	 xmlns="http://www.w3.org/2000/svg" xmlns:xlink="http://www.w3.org/1999/xlink" x="0px" y="0px" viewBox="0 0 499.9 1090.7"
	 style="enable-background:new 0 0 499.9 1090.7;" xml:space="preserve">
   <path xmlns="http://www.w3.org/2000/svg" fill="#d1cfba" id="Lappland" class="st1" d="M364.6,0.1l-13.5,2.5l6.5,9l1.3,8.7l-2.3,10.4l-4,6.4l-3.5,3.4l8.8,4.2L349,55.8l-27.9-9.6&#10;&#9;l-11,1.8l-6.1-5.3l-8.2,4l-0.2,10.5l2.9,16.8l-6,15.5l-0.7,2.6l-7.9-5.9L273,80.5l-2.8,5.3l-12.6,9.5l-1.7,1.6l-5.2,23l-3.3,6.5&#10;&#9;l-6.6,1.3l-2.6,6.8l8.5,15l1.2,5l-1.5,11.9l-8.3,7.3l-3.3,4.1l-11.4,22.2l-7.8,9l2.3,10.4l0.5,4.9l-14.3,11l-1.8,0.2L188,236&#10;&#9;l2.8,25.3l-3.2,9.5l-1.8,19.1l-0.3,11.3l-4.4,4.3l-1.6,10.3l9.6,8.7l1.8,0.6l1.5,2.2l2.3,2.8l-0.2,3l2.6,3.3l2.9,0.2l2.7,3.8&#10;&#9;l0.4,4.7l6.3,3l3.3,5.2l-2.3,1.6l2.5,1.6l0.9,2.2l2.1-0.6v2l4.1,3.5h2.9l4.2,3.4l0.3,4.9l9.3,6.2l0.1,5.8l6-0.6l18.2,20.3l4.3,4.6&#10;&#9;l14.5,2.8l15.7,2.5l23.2-9.9l13.4-5.8l13-6l-1.6-3.3l1.2-0.9l-1.5-3.2l-2.7,1l-3.4-16.7l9.6-28l-18.6-14.6l21.4-14.7l6-3.6l1.7-1.9&#10;&#9;l6.6-14.7l-8.1-4.9l1.4-6l2-1.2l9.5,1.7l5.2-5l-0.4-2.1l-4.2-18.7l2.8-6.1l4.7-7.7l10.7-27.4l8.5-3.3l8.4,6.3l2.6-0.5l8.3-8.1&#10;&#9;l9.4-4.3l4-2.9l-0.7-11.7l-4.5-5.4l3.2-13.8l1.1-6.5l-12.6-26.5l2.6-7.3l5.3-15.7l5.9-15.5l9.6-8.7l11.1-27.1l-2.8,1.6l-1.3-2.2&#10;&#9;l0.1-3.1l-0.3-2.8l-2.6-2.1l-0.5-2.8l-3.3-1.6l-1-0.1l-3.2-1.5l-0.1-2.1l-1.6-1.1l-0.7,1.4l-3.2-1.9l-1.2-1.6l-1,0.9l-5.8-2.6&#10;&#9;l-1.3,1.5l-1.4-2.3l-2.3,0.6h-3.1l-3-0.9l-0.7-2l-0.1-2.5l-5.1-2.9l-3.8,0.1l0.1-2.6l-3.3-2.5l-3.3-1l-2.5-1.2l-0.6-5l-1.8-0.9&#10;&#9;l-1.6,1l-2.1-4l-6.9-6l-2.3,0.4l-2.3-2.8l1.4-1.8L375,5l-1.7-0.7l-2.6-3.1L364.6,0.1z M269.6,213.2l7.5,3.6l3.5,4.3l4,4l3.5,4&#10;&#9;l5.1,2.6l1.9,4.7l3.1,3l2.9-1.4l1.9,2.2l-1.2,1.8l-4.7,1l1.6,5l-1.4,4.3l8.5,10.5l4.2-0.1l2.6,1.6l-0.5,3.4l1.7,2l3.4,2.6l-0.2,2.1&#10;&#9;l-7.6-2.5l-2-1.3l-3,1l-3.4-9.9l-5.1-7.4l-1.6,4.5l-2.7,0.1l-0.7-4.9l1.2-2.9l-0.3-2.8l-3.6-5l3.8-1.9l2.8-1.2l-3.7-3.6l-4.1-4.5&#10;&#9;l-5.1-2.2l-0.4-3.6l-4.3-5.7l-8.3-5L269.6,213.2z"/></svg>