<svg version="1.1" id="g-Sverigekarta-Landskap_Text-Artboard_1-img"
	 xmlns="http://www.w3.org/2000/svg" xmlns:xlink="http://www.w3.org/1999/xlink" x="0px" y="0px" viewBox="0 0 499.9 1090.7"
	 style="enable-background:new 0 0 499.9 1090.7;" xml:space="preserve">
   <path xmlns="http://www.w3.org/2000/svg" fill="#f9fe07" id="Närke" class="st6" d="M202.8,765.3l-2.9,2l-1.1-3.8l-2.8,0.6l-0.1,4.7l-2.3,2.9l-6-0.4l-2,1.6l2,3.5l-9.6,1.9l-12.2,23.5&#10;&#9;l7.5-2.3l2.2,15.8l6.4,3l0.5,4l1.5,3.5l4-2.5l2.5-5.6l2.7-1.7v4.2l1.4-0.4l0.2,2.8l-1.7,3.5l3.7-2.1l0.9-3l1.6-3.1l1.9-2.5l2.2-0.1&#10;&#9;l2.5-3l3.7,2.2l2-1l1.3,2.2l0.9-3.6l3.4,0.1l1.8-2.8l-1.5-2.7l4.2-4.6l-1.1-1.7l0.9-3.5l2.1-3.5l3.8-0.5l-0.1-2.3l-4.7-0.5l-2.1-3.1&#10;&#9;l1.6-2.5l-3.2-4.2l-5.4,1.9l-5.8-2.3l-0.1-2l5.7,0.2l5.2-1.7l7.2,0.7l-2.8-7.2l-2.9,0.4l-1.6-1.9l-10.8-0.5L202.8,765.3z"/></svg>