<svg version="1.1" id="g-Sverigekarta-Landskap_Text-Artboard_1-img"
	 xmlns="http://www.w3.org/2000/svg" xmlns:xlink="http://www.w3.org/1999/xlink" x="0px" y="0px" viewBox="0 0 499.9 1090.7"
	 style="enable-background:new 0 0 499.9 1090.7;" xml:space="preserve">
   <path xmlns="http://www.w3.org/2000/svg" fill="#e2e0ca" id="Södermanland" class="st4" d="M277.5,762.9l-1.8,0.5l-0.6,2.8l-4.6-2l-2.1,1l-3.3,0.3l-4,1.3l-3.6-0.7l-4,0.9l-7.6,0.5&#10;&#9;l-0.2,2.2l1.9,1.5l-0.4,1.9l-5,1.2l-3.4-0.5l-2.2-0.9l-2.9,2.6l-2.9,3.4l5.8,0.4l2.9,2.1l7.7-2.6l1.7,0.2l-1.5,2.6l-3.3,1.4&#10;&#9;l-4.4,0.4l-2.8,1.2l-4.5,1.6l-0.3,2.9L230,791l-2.8-0.3l0.1,2.3l-3.8,0.5l-2.1,3.5l-0.9,3.5l1.1,1.7l4.5,1.8l2.1-4.6l2,1.1l0.7,2&#10;&#9;l4,2.7l4,1.8l1.8,3.5l2.9,3.2l2.5,0.6l1.1,1.6l4.8,9.4l2,0.9l1.2,2.7l5.5,1.4l4.3,0.7l2.7,0.3l2.9,0.3l3.4,0.3l4.5-1.6l-0.1-1.7&#10;&#9;l-3.4-1l1.8-1l2.3,0.3l2.6,1.7l1.7-2.9l-2-1.9l-3-2.7l2.8-1.1l2,2.1l2.1-0.1l4.2,1l1.7-2l2.7,0.5l0.5-3.5l1.2,0.2l0.7,0.2l2.1-0.3&#10;&#9;l-1.2-1.3l0.6-5l2.8,2.2l1.3-1l-1-2.1l2-2.1l0.6-3.1l0.9,0.2l0.7,0.3l0.4-0.4l0.3-1.5l-0.1-2.5l-0.3-3.8l-0.1-1l-0.6-0.4l-0.5,0.4&#10;&#9;l-0.2,1.4l-0.1,1.1l-0.6,1.5l-0.4,0.3l-0.3-1.1l-0.1-3.2l0.7-1.3l-0.1-0.4l-0.5-0.4v-0.6l0.3-0.3l1.1-0.9l-0.2-0.3l0.3-0.5l0.3,0.1&#10;&#9;l0.4-0.1l0.2-0.3v-0.9l-0.2-1.2l-0.7-1.3l-0.1-0.6l0.4-0.4l0.3,0.3l0.2,0.6l0.2,0.9l0.3,0.4l0.4,2.2l-0.4,1.4v1.1l0.1,1.3l0.6,0.1&#10;&#9;l1.2-0.4l0.1-1l-0.3-1.5l0.2-0.5l1.5-1l-0.1,0.7l0.3,1.1l-0.5,0.3l-0.3,1l0.2,0.9l-0.4,0.6l-0.5,1v0.9l0.5,1.2l0.4,2.3l-0.3,0.9&#10;&#9;l-0.1,0.6l0.5,0.6l-0.1,3l-0.2,0.5l0.3,0.7l1,1l1,1.9l1,2l-0.1,1.3l-0.5,0.9l-0.7,1v0.9l2.6-0.9l1-3.8l0.6-0.6l0.6-2l0.9-1.1l1-0.6&#10;&#9;l0.4-1.8l-0.4-2.6l0.6-1.9l0.1-0.7l0.2-0.9l0.3,0.4l0.2,0.7l0.3-0.1l0.2-0.3l-0.1-0.6l-0.4-2l0.1-0.4l0.5,0.1l0.1,0.6l0.4,0.2&#10;&#9;l0.3-0.4v-0.6l0.3-0.7l0.6-0.3l1-0.1l0.5-0.2l0.2-0.7l0.3-0.5l1.1-0.3l0.2-0.4l1.9-0.7l0.6-0.5l0.2-0.4l-0.3-0.3l0.3-0.6l0.5-0.3&#10;&#9;l0.9-0.1l0.4,0.3l0.1,0.3l-0.4,0.4h-0.4l-0.4,0.3l-0.2,0.5l0.3,0.3l-0.1,0.3l-0.4,0.2l-0.6,0.6v0.4l0.1,0.4l0.5-0.2l0.5-0.6l1-0.5&#10;&#9;l2-0.7l0.6-0.6l-0.1-0.5l-1.9,0.2l0.6-1.2l1.2-0.5l0.5-0.3l0.6,0.1h0.3l1-1.1l0.4,0.1l0.1,0.3h0.4l0.5-0.3l0.5-0.3l0.9-2l-0.3-0.2&#10;&#9;l-0.6,0.2l-0.6,0.2l-1.3-0.5l-0.5-0.5l0.3-1l0.9-0.5l0.3-0.4l-0.7-1.4l-0.6-0.1l-0.6-0.2l-0.7-0.9l-2.1-1.5l-1-0.1l-0.3-0.3&#10;&#9;l-0.1-0.2l0.2-0.3h0.6l1.5,0.3l0.7,0.2l0.4-0.2l-0.1-0.5l-0.6-0.2l-1-0.2l-0.2-0.5l-0.3-0.7l-0.6-0.2l-0.9,0.1h-1.5l-0.3-0.4&#10;&#9;l-0.1-1.3v-1h-0.3l-0.7,0.4l-1.5,0.7l-0.9,0.2l-0.7-0.1l-1-0.1l-0.7-0.3l-0.9,0.2l-1,0.3h-0.9l-0.3,0.3l-1,0.2l-0.9,0.4l-0.7,0.3&#10;&#9;l-0.6,0.5l-1,0.5l-0.2,0.9l0.3,0.4v2.2l-0.3,0.6l-0.3-0.6l-0.3-0.9l-0.7-0.4h-1.5l-1,0.2l-0.9-0.3l-0.9,0.7l-0.9-0.9l-0.4-0.9&#10;&#9;l-1-0.5l-1.2-0.3v0.5l-0.9,0.1l-0.4-0.3l-0.7,0.3l-0.2,0.7l0.2,0.4l0.3,0.3l0.1,0.5l0.3,1.7l0.5,1.5l-0.1,0.5l-0.6-0.1l-0.3-0.6&#10;&#9;l-0.7-1.7l-0.5-1.6l-0.4-0.6h-1l-3.2-1.7l-1.2-1.4h-0.5l-1-0.7l-0.4-0.1l-0.3-0.5L292,776l0.1,0.6l0.4,0.4l-0.1,2l0.2,0.5l1.4,2.2&#10;&#9;l0.2,0.6l-1.4-0.6l-1-0.4h-1.2l-1.2,0.4l-0.7-1.3l-1.2-2.9l2.1-1.6l-0.4-2.5l-1.2-0.3l2-2.7l-1.8-4l-5.4-1.3l-1.1,1.7l1.4,4.8&#10;&#9;l-3,0.2l-1.6-5.1l1.2-2.8L277.5,762.9z M337.2,790.8l-0.1,0.1l-2,2.5l-1.7,0.7l-0.1,0.3l0.3,0.1v0.3l-1.1,1.5l0.1,0.3l0.5-0.1&#10;&#9;l0.1,0.3l-0.2,0.2l-0.3,0.4l-0.3,0.4l0.1,1l0.9,0.4l1-0.3l0.2,0.6h0.5l0.4-0.6l0.2-2.9l1.1-1.1V794l1-0.9l0.3-0.7L337.2,790.8z&#10;&#9; M325,798l-1.2,0.6h-1.3l-0.4,0.2l-0.3,0.5v0.1l0.1,0.6l-0.1,0.5l-0.9,0.9l-0.1,0.3l0.1,1l-0.2,0.5l0.2,0.1l0.6-0.2l0.3-0.3l0.3-0.9&#10;&#9;l0.4-0.2l0.3,0.3l0.1,0.6l0.4,0.3l0.7-0.2l0.4-0.4l-0.5-1l-0.1-0.6l0.4-0.3l0.4,0.2l0.3-0.3l-0.1-0.6l0.3-0.6l0.6-0.1l0.5-0.3&#10;&#9;l0.2-0.4h-0.5L325,798z M332.7,801.7l-0.5,0.3l-0.4,0.6l-1.3,0.9l-0.7-0.2l-2.5,1.5l-0.4,0.3l-1.2,1l-1,0.9l0.1,0.6l0.3-0.1l0.6-0.3&#10;&#9;l0.6-0.6l0.2,0.3v0.6l1.2,0.1l0.4-0.3l0.4-0.4l0.5-0.3l0.7,0.2l1.3-0.7l-0.4-0.5l-0.6-0.4l0.3-0.5l2.1-1.3l0.3-0.3V802L332.7,801.7z&#10;&#9;"/></svg>