<svg version="1.1" id="g-Sverigekarta-Landskap_Text-Artboard_1-img"
	 xmlns="http://www.w3.org/2000/svg" xmlns:xlink="http://www.w3.org/1999/xlink" x="0px" y="0px" viewBox="0 0 499.9 1090.7"
	 style="enable-background:new 0 0 499.9 1090.7;" xml:space="preserve">
   <path xmlns="http://www.w3.org/2000/svg" fill="#ab7d95" id="Uppland" class="st3" d="M288.9,670.8l-1.6,14.4l-1.7,5l-2,7.9l-3.8,3.3l-7.7-1.3l-1.6,1.9l0.7,1.7l-3.3,3.2l-3,0.1&#10;&#9;l0.6,6.5l-1.6,0.6l1.2,5.4l-1.2,2.5l4,3.2l0.4,3.7l-0.9,1.8l2.2,3.1l-1.3,3.3l-2.1,3l2,3.8l3.1,4.6l1.6,8.4l2.8,2.8l2.8-1.7l2.5-0.6&#10;&#9;l4.6,2l5,4.4l3.5,0.1l-0.2-4.2l-2.9-6l0.4-0.7l1.3-0.6l0.2,1.4l0.4,1.1l1.2,1.6l1.3,1.7l1.4,1l0.7-0.1l0.5-0.9l0.5-1.2l0.5-0.2&#10;&#9;l0.1,0.5l0.1,0.5l-0.4,1.3l-0.5,0.4l-0.6,0.5l-0.1,0.4l0.2,0.5l1.5,1.7l0.3-0.1l-0.2-0.5l0.2-0.5l0.5-0.1l0.3,0.4v1.6l0.2,0.6h0.6&#10;&#9;l0.2-0.5l-0.3-0.5l-0.1-0.4l0.5-0.7l0.9,0.1l0.9,0.6l0.7,0.4l0.1,0.7l0.4,0.5l0.1,1.3l0.6,0.3l0.5,0.1v0.4l0.4,0.1l0.4-0.6v-1.6&#10;&#9;l0.3-1.4l0.4-0.1l0.4,1.2l0.6-0.4l0.4,0.4l-0.2,0.5l-0.1,0.2l-0.1,0.2l-0.7,2.6l-0.1,1l0.2,0.6l0.4,0.4l0.4,0.6l1.4,1.5l1.1,1.1&#10;&#9;l1.6,0.9l0.3,0.7l0.4,0.3l0.7,0.2l0.7,0.7l0.4-0.1l0.6-0.2l0.2-0.9l0.1-0.9l0.1-0.3l0.2,0.1l0.7,0.9l0.7,0.3h0.6l1.1-0.2l0.7-0.1&#10;&#9;l0.7,0.7l0.6,0.1l0.5-0.3v-0.5l-0.5-0.9l-1.2-0.9L320,771l1.1-1.2l0.2-1v-1.2l0.2-0.4l0.5-0.5l-0.2-0.4l1.3-1l0.4-0.2l0.2,0.7&#10;&#9;l0.1,0.4h0.5l1-0.5l0.2,0.2v0.4v0.7l-0.3,0.2l-0.7-0.3l-0.3,0.5l-0.1,1v0.9l0.9,0.2l0.6,0.1l0.6,0.3l2.2-0.2l1-0.3l0.3-0.4l-0.3-0.3&#10;&#9;h-1l-0.1-0.2l0.4-0.3l0.2-0.3l-0.6-0.9l-0.3-0.4l-0.7,0.1l-0.4-0.1l-0.2-0.3l0.2-0.4l0.7-0.1l0.6,0.3l0.9-0.2l0.4-0.4l0.2-0.6&#10;&#9;l-0.2-0.4l-0.5-0.1l-0.5-0.3l0.3-0.4l0.6-0.1l0.3,0.4l0.3,0.2l0.5-0.2h0.5l0.2,0.5l0.6-0.1l0.5,0.1l0.5-0.1l0.7-1.4v-0.4l0.2-0.3&#10;&#9;l0.9-0.2l0.6-0.6l0.5-1l0.3-0.2l1.6-1.8l0.7-0.1l0.3-0.5l1.3-1l1.2-0.9l0.9-0.5l1.5-1l2.1-3.7l0.5-4.3l4.6-2.6l6.3,0.4l2.2-1.6&#10;&#9;l-0.4-3.5l-4-1.2l-0.2-3.4h2.9l1.5-4.3l-2.6-2.1l-3.8-2.8l-3-5l-1.9-7l-1.6-1.2l0.5-5.1l-3.3-3.1l-0.3,4.1l-1.2,2.6l-2.6-0.7l-4-0.9&#10;&#9;l-0.3-4.4h2.5l1.1-2.1l-1.6-3.1l-3.3-2.7l3.3-0.3l0.5-2.6l-2.8-0.9l-2.9-4.7l-1.6-6.9l-1.4,0.7l-0.1,3.4l1.7,6.8l-1.4,1.7l-3.8-1.1&#10;&#9;l-6.8-5.9l-4.3-5.6l-0.5-5.1l-3.2-2.1l-4.6,2.1L304,680l-3,0.6l-2.1-5.6v-4.3L288.9,670.8L288.9,670.8z M353.5,747.7l-2.3,1.4&#10;&#9;l-1.8,3.2l-2,1.8l0.7,0.6l3.3-2.6l1.9,0.3l0.2-2l2.2-0.2v-1.6L353.5,747.7z M343.6,755.5l-0.6,0.4l-0.3,0.4l-1.8,1.1l-0.2,0.7&#10;&#9;l-0.5,0.6l-0.3,0.3v0.5l-0.3,0.4v0.2l0.6,0.1l0.3,0.1l-0.2,0.6l-0.4,0.6l-0.5-0.2l-0.1-0.5l-0.4-0.1l-0.5,0.2l-0.2,0.7l0.3,0.2&#10;&#9;l0.2,0.3l-0.1,0.9l0.1,0.5l0.6,0.4l0.2,0.5v1v0.5l0.6-0.1l0.4-0.7l0.1-1l0.1-0.4h0.5l0.3-0.3v-1.1l-0.3-1l0.2-0.6l0.3-0.3l0.5,0.1&#10;&#9;l0.6-0.3l0.3-0.9l0.6-1.1l0.3-0.5l0.6-0.1v-0.4l-0.4-0.2l-0.1-0.9h-0.5v-0.3l0.3-0.4L343.6,755.5z M353.3,764.2l-0.7,0.3l-0.5,0.6&#10;&#9;l-0.3,0.5v0.5l0.2,0.7l-0.1,0.5l-0.4,0.6l-0.1,0.6l0.3,0.2l0.6-0.4l0.1-0.4l0.2-0.4l0.6-0.5l0.5-0.6l0.1-0.9l0.4-0.1l0.3-0.3v-0.6&#10;&#9;l-0.2-0.4h-0.5H353.3z M330.3,765.3l-0.3,0.4l-0.1,0.5l-0.2,0.7l0.5,0.4l0.7-0.9l1-0.2l-0.1-0.3l-0.6-0.2l-0.4-0.5H330.3z&#10;&#9; M301.7,765.6l-0.5,0.3l-0.1,0.2l0.2,0.4l0.1,0.9l1.1,2.2l0.3,1.3l0.7,1.7l1.1,1.6l0.7,1.3h0.6l0.3,0.3l0.5,0.9l1.2,0.3l0.7-0.2&#10;&#9;l0.3-0.6l-0.1-0.6l-0.4-0.4l0.1-0.5v-1.2l-0.2-1l-0.4-0.7l-0.1-0.4l-1.2-1.2l-0.2,0.2l0.1,0.5l-0.3,0.2l-0.4-0.2l-0.5-1l0.1-0.5&#10;&#9;l0.4-0.2h0.4l0.2-0.2l-0.9-0.9l-0.7-0.3l-0.5,0.3l-0.6-0.4l-0.9-1l-0.5-0.3L301.7,765.6z M355.1,766.4l-0.4,0.3l-0.1,0.6l-0.5,0.3&#10;&#9;l0.3,0.5l-0.1,1.5l0.2,0.4h0.7l0.2-0.4l-0.2-1.4l0.7-1.2l-0.1-0.5L355.1,766.4z M336.2,767.1l-0.4,0.3l-0.4-0.1l-0.3,0.2l0.1,0.3&#10;&#9;l0.2,0.4l0.5,0.2l0.2,0.4l0.2,0.7v0.6l-0.2,0.7l-0.1,0.6l0.1,0.3l0.2,0.4l0.2,0.3v0.7l-0.3,2v0.6l0.5,0.3h0.5l1.4,0.9l0.9-0.2l2-0.4&#10;&#9;l1-0.2l0.5-0.6l0.2-0.9l0.1-0.7l-0.4-0.7l-0.9-0.4l-1.2-0.4l-0.9,0.2l-0.3-0.5l0.9-0.2l0.9-0.1l0.4,0.1l0.4-0.1l0.4-0.3v-0.5&#10;&#9;l-0.3-0.4h-0.5l-0.7,0.4l-2.7-1.7l-0.6-1.9l-0.2-0.2l-0.9-0.1L336.2,767.1z M300.4,767.6l-0.7,0.2l-0.5,0.2l-0.6,0.5l0.1,0.9&#10;&#9;l0.2,0.7l0.2,0.5l0.4,0.2l0.3-0.1h0.4l0.6,1.6l0.4,0.4l0.6-0.1l0.1,0.6l-0.2,0.5l0.5,0.2l0.2,1.2l-0.1,0.5v0.6l0.3,0.4l0.6,0.3&#10;&#9;l1.5,0.7l1.7,1.4l1.5-0.1l0.5,0.1l0.3,0.3l1.2,0.3l1.1-0.5l0.2-0.2l-0.2-0.5l-1.3-0.6l0.1-0.3l-0.5-0.1l-1,0.4l-0.5-0.1l-1.1-0.4&#10;&#9;l-1.4-0.9l-0.9-0.6l-1.1-0.2l-0.9-3l-1.8-5.2H300.4z M296.9,768.3l-0.9,0.3l-0.1,0.6l0.1,0.4v0.5l-0.1,0.4l0.1,0.3l0.7,0.7l0.3,0.6&#10;&#9;L297,773l0.4,0.9l0.6,0.6l0.5,0.1l0.3-0.5l-0.2-0.9l0.1-0.5l0.2-0.4v-0.6l-0.4-0.4l-0.5-1.6l-0.5-0.6l-0.1-0.5L296.9,768.3z&#10;&#9; M322,769.8l-0.3,0.2v0.3l0.1,0.3l0.5,0.2l0.3,0.4v0.5l0.1,0.4l0.6,1l0.9,0.3h1l0.6-0.3l0.5-0.3l0.2-0.5l-0.2-0.3l-0.1-0.2l0.2-0.2&#10;&#9;l0.6-0.1l0.3-0.1l-0.1-0.4l-0.6-0.2l-0.5,0.3l-0.4-0.1l-1.2-0.2l-1.1-0.5l-0.9-0.3L322,769.8z M344.5,770l-1.3,0.5l1.2,1.9l0.3,1.1&#10;&#9;v0.9l-0.1,1.4l0.3,0.2l0.4-0.2l1-0.6l0.6-0.5l0.2-0.7v-1.1l-0.1-0.9l-0.4-0.9l-1.1-0.7l-0.4,0.4L344.5,770z M353.7,771.2l-0.3,0.1&#10;&#9;l-0.4,0.5l-0.2,0.5l-0.2,1.1l-0.1,1.1l-0.3,0.4l1.4,0.1l0.3-0.3l-0.4-0.6l-0.1-0.4l0.4-1v-0.5l0.5-0.3l-0.1-0.4L353.7,771.2z&#10;&#9; M329.9,772l-1.7,0.1l-0.1,0.6l-0.4,0.2l-1,0.5l-0.1,1.9l0.1,0.5v0.3l0.5,0.3l1,0.1l0.9-0.4l0.5-0.5l0.2-0.5l0.1-1.3l1.1,0.2&#10;&#9;l0.5,0.2l0.7-0.1l0.4,0.2l-0.3,0.5l-0.6,0.4l-0.2,0.3l0.3,1.2l-0.3,0.3l-0.3,0.3l0.5,0.3l1.4,0.1l0.7,1.2l0.7,0.3l0.4,1.2l1.1,0.6&#10;&#9;l0.9,0.1l0.5,1.2l1.7,0.4l0.4-0.3l0.5-0.5l0.6-0.3v-0.9l1.1-0.3l0.4-0.5l0.6-0.2l0.7-0.2l-0.1-0.4l1.9-2.3l-0.2-0.4l-2.8,0.9&#10;&#9;l-2.9,0.4v0.4l0.5,0.4L340,779h-0.3l-1.3-0.5l-0.4-0.5l-0.9-0.6L336,777l-1.2,0.3l-0.4-0.4l0.2-0.7l0.7-1.2l0.1-0.3l-0.3-0.3&#10;&#9;l0.5-0.3v-0.5l-1.3-1.2l-0.9-0.3l-1.5,0.2l-0.5-0.2l-0.9,0.1L329.9,772z M311.1,773.1l-0.9,0.1l-0.2,0.4l-0.3,0.7l0.1,0.5l1.1,1.3&#10;&#9;l0.5,0.9l0.6,0.1l0.6-0.5l0.1-0.9l0.1-0.3l0.3-0.2l-0.1-0.5h-0.4l-0.4-0.3l-0.5-1L311.1,773.1z M349.2,776l-0.5,0.2l-1.1,0.9&#10;&#9;l-0.5,0.4l-0.3,1v0.7h0.4l0.6-0.2l0.6,0.3l0.5-0.5l0.2-1.1l0.9-1L349.2,776z M346.1,782.6l-0.4,0.5l-0.3,0.5l-0.9,1.6l-0.1,0.5&#10;&#9;l0.6-0.5l0.6-0.4l0.9-0.3l0.6-0.2l0.5-0.3l0.2-0.7h-0.5l-1.1,0.5l0.2-1L346.1,782.6z"/></svg>