<svg version="1.1" id="g-Sverigekarta-Landskap_Text-Artboard_1-img"
	 xmlns="http://www.w3.org/2000/svg" xmlns:xlink="http://www.w3.org/1999/xlink" x="0px" y="0px" viewBox="0 0 499.9 1090.7"
	 style="enable-background:new 0 0 499.9 1090.7;" xml:space="preserve">
   <path xmlns="http://www.w3.org/2000/svg" fill="#9bdd6e" id="Västmanland" class="st5" d="M264.9,707.1l-6,0.4l-2,0.9l-0.1,2.5l-3.6,2.5l-1.7,3.1l-7.4,0.7l-1.5-0.7l0.6-3.2l-2.6-1.6&#10;&#9;l-2.1-0.3l-1.3-3.2l-2.1-0.6l-2.9,2.5l-4.5-1.1l-1,2.6l-1.6,1.1l0.1,2.7l-2.1,4.2l1.8,2.6l-1.3,5.8l-2.7-1.1l-3.2-0.2l-1.9,4.3&#10;&#9;l-3.2,3.6l-3-5.4l-4.3-4.9l-3.6-2.8l-2.2-3.5l-1.9,0.3l-6.8-4.7l-2.1,0.2l-3,1.9l1.1,7.4l-12.2-2l0.9,3.7l-4.8,1.7l1.3,2.9l2.1,1&#10;&#9;l-0.6,6.1l0.7,4.4l-2.2,1.4l2.1,4.1l-0.7,2.8l1.4,6.4l0.1,4.7l6.9,1.9l2.8,2.1l-1.1,4.7l2.2,4.4l2-1.6l6,0.4l2.3-2.9l0.2-4.7&#10;&#9;l2.7-0.5l1,3.7l3-1.9l4.7,2.5l5.4,0.2l5.3,0.3l1.5,1.9l2.9-0.3l2.8,7.2l1.3,0.2l1.5,2.6l2.3-1.2l2.9-3.4l2.9-2.6l2.2,0.9l3.4,0.5&#10;&#9;l5-1.2l0.4-1.9l-1.9-1.5l0.2-2.2l-5.8,0.5l-1.2-3.4l4.7,0.1l2.7-1.6l3.4,1.6l4.8-1.2l1.6-2.1l2.6-2.7l-1.4-2.3l2.8-1.4l2.9,2&#10;&#9;l2.3,3.2l3.2-1.4l1.1-1.8l3.4,0.3l-1.6-8.4l-3.1-4.6l-2-3.8l2.1-3l1.3-3.3l-2.2-3.1l0.9-1.8l-0.4-3.7l-4-3.2l1.2-2.5l-1.2-5.4&#10;&#9;l1.6-0.6L264.9,707.1L264.9,707.1z"/></svg>