<svg version="1.1" id="g-Sverigekarta-Landskap_Text-Artboard_1-img"
	 xmlns="http://www.w3.org/2000/svg" xmlns:xlink="http://www.w3.org/1999/xlink" x="0px" y="0px" viewBox="0 0 499.9 1090.7"
	 style="enable-background:new 0 0 499.9 1090.7;" xml:space="preserve">
   <path xmlns="http://www.w3.org/2000/svg" fill="#b3619d" id="Västerbotten" class="st2" d="M363.5,291.1l-6.6,14.7l-1.7,1.9l-6,3.6l-21.4,14.7l18.6,14.6l-9.6,28l3.4,16.7l2.7-1&#10;&#9;l1.5,3.2l-1.2,0.9l1.6,3.3l6.7,4.5l1.1,2.5l4.1,4.6l2.2,8.4l2.5,3.7l3.3,1l3.2,4.4v5.8l-1.4,3.2l1.4,3.3l-1.1,1.8l1.4,3l5.3-6.9&#10;&#9;l3,0.1l0.4-3.8l3.7,0.5l5.9-0.4l0.7-2.5l3.1-0.1l0.6-5.8l2.8-3.7l5.1-1l2.3-4.7l2.3-6.3l2.6-8.9l0.9-7.7l3.8-5.2l4.5-6.2l6.8-5.8&#10;&#9;l3.8-7.4l-0.2-2.8l-2.8,0.4l-1.8-6.4l-3.2-3.3l-4-0.5l-2.5-4.1l1.6-2.2l-0.2-6.6l-6.3-0.4l-2.1-4.4l4,0.6l4.1-5.8l-1.4-4.1l4-1.7&#10;&#9;l4.1-9.3l-6.7-3.5l-0.9-3l-18.2-1.9L363.5,291.1z"/></svg>