<svg version="1.1" id="g-Sverigekarta-Landskap_Text-Artboard_1-img"
	 xmlns="http://www.w3.org/2000/svg" xmlns:xlink="http://www.w3.org/1999/xlink" x="0px" y="0px" viewBox="0 0 499.9 1090.7"
	 style="enable-background:new 0 0 499.9 1090.7;" xml:space="preserve">
   <path xmlns="http://www.w3.org/2000/svg" 
     id="Ångermanland" 
     class="st0"
     fill="#7c3cc1"
     d="M225.2,362.4l-2.6,1.4l-2.9,0l-4.9,5.4l19.8,29.7l0.3,17.1l-2.1,2.4l1.7,2.9l0.6,11.9&#10;&#9;l-3.8-2.3l-2.9,1.1l6.8,8.8l-0.6,3.7l0.4,5.6l2.6-1.1l2.8,1.5l-0.2,4.9l17.1,15.3l15.1,18.1l5.8,7.4l9.4,10.3l1,2.7l4.6,6l3.2,1.2&#10;&#9;l0.3,3.7l3.4,3.2l3.6,2l2-6.1l5.6-4.5l-3.3-2.8l2.6-2.2l3.7-6.1l-4.9,0.4l-0.5-2.8l4.6,1l5-5.3l-2.2-2.1l1.8-1.6l4.2,3l3.6-6.3&#10;&#9;l1.7-5.6l-6-0.9l0.7-2.3l3-0.2l0.4-3.7l3.5-7.4l4.1,0.1l7.5-5.2l3.1,2l2.7-3.5l0.2-6.6l4-1.1l1.3-11.1l3.8,0.9l3.1-1.5l-2.5-4.9&#10;&#9;l1.6-2.3l4.3,3.8l3.4,6.1l2.8-2.1l-1.3-4.2l1-1.8l-1.4-3l1.1-1.8l-1.4-3.3l1.4-3.2v-5.8l-3.2-4.4l-3.3-1l-2.5-3.7l-2.2-8.4l-4.1-4.6&#10;&#9;l-1.1-2.5l-6.7-4.5l-13,6l-13.4,5.8l-23.2,9.9l-15.7-2.5l-14.5-2.8l-4.3-4.6l-18.2-20.3l-6,0.6l-0.1-5.8l-9.3-6.2l-0.3-4.9&#10;&#9;L225.2,362.4L225.2,362.4z"/></svg>