<svg version="1.1" id="g-Sverigekarta-Landskap_Text-Artboard_1-img"
	 xmlns="http://www.w3.org/2000/svg" xmlns:xlink="http://www.w3.org/1999/xlink" x="0px" y="0px" viewBox="0 0 499.9 1090.7"
	 style="enable-background:new 0 0 499.9 1090.7;" xml:space="preserve">
   <path xmlns="http://www.w3.org/2000/svg" fill="#e4e315" id="Öland" class="st7" d="M282.5,931.5l-1.7,1.5l-2.3,3.4l-0.3,4l-0.4,2.6L276,944l0.5,2.7l-1.1,4.1l-1.9,4.2l-1.3,3.3&#10;&#9;l-1.7,1.7l-1.4,3.8l-1.3,4.9h-2.6l-1.7,1.5l-1.5,4.7l-2.2,4.6l-2.7,6.7l-0.7,4.2l-2.2,4l-0.3,3.2l0.3,8.1l0.9,0.4l-0.2,12.6l0.9,1.4&#10;&#9;l-0.3,4.1l2.9-2.6l1.4-4.5l2.8-6.7l-0.6-2.7l1.8-4.4l1.3-4.9l0.3-3.6l2.2-2.3l-0.3-1.7l0.7-4.4l3.2-11.7l2-0.5l1.2-2.9l-0.1-2.5&#10;&#9;l1-1.8l0.1-5.4l2.3-2.1l-1.1-2.6l1.7,0.1l1.5-5.4l2.1-4.7l1.1-1.1v-4.8l-0.6-1.8l1.1-2.7l2.1-1.2l-0.7-3.1l-1.3,0.6L282.5,931.5z"/></svg>